<svg xmlns="http://www.w3.org/2000/svg" xmlns:xlink="http://www.w3.org/1999/xlink" version="1.1" width="256" height="256" viewBox="0 0 256 256" xml:space="preserve">

<defs>
</defs>
<g style="stroke: none; stroke-width: 0; stroke-dasharray: none; stroke-linecap: butt; stroke-linejoin: miter; stroke-miterlimit: 10; fill: none; fill-rule: nonzero; opacity: 1;" transform="translate(1.4065934065934016 1.4065934065934016) scale(2.81 2.81)" >
	<path d="M 90 49.291 c 0 -4.481 -1.863 -8.53 -4.848 -11.432 l 1.888 -3.468 c 0.714 -1.312 0.683 -2.924 -0.08 -4.207 c -0.739 -1.244 -2.028 -1.987 -3.447 -1.987 h -7.621 l -2.76 -5.684 c -2.816 -5.802 -8.419 -9.406 -14.621 -9.406 H 31.49 c -6.201 0 -11.804 3.604 -14.621 9.406 l -2.76 5.684 H 6.488 c -1.42 0 -2.709 0.743 -3.449 1.988 c -0.762 1.283 -0.792 2.895 -0.079 4.207 l 1.887 3.468 C 1.863 40.761 0 44.81 0 49.291 c 0 4.827 2.164 9.152 5.562 12.081 v 8.274 c 0 3.996 3.123 7.247 6.961 7.247 h 5.675 c 3.839 0 6.962 -3.251 6.962 -7.247 v -4.396 h 39.68 v 4.396 c 0 3.996 3.123 7.247 6.962 7.247 h 5.675 c 3.839 0 6.962 -3.251 6.962 -7.247 v -8.274 C 87.837 58.443 90 54.118 90 49.291 z M 83.49 32.189 c 0.017 0.011 0.119 0.138 0.036 0.291 l -1.606 2.951 c -1.003 -0.573 -2.069 -1.047 -3.193 -1.393 l -0.895 -1.843 L 83.49 32.189 z M 20.467 24.26 c 2.142 -4.412 6.366 -7.153 11.022 -7.153 h 27.02 c 4.657 0 8.881 2.741 11.023 7.153 l 4.405 9.072 H 16.062 L 20.467 24.26 z M 6.474 32.479 c -0.083 -0.153 0.02 -0.279 0.014 -0.282 h 5.679 l -0.893 1.84 c -1.124 0.346 -2.19 0.821 -3.193 1.394 L 6.474 32.479 z M 4 49.291 c 0 -6.085 4.572 -11.113 10.459 -11.854 h 61.083 C 81.429 38.178 86 43.206 86 49.291 c 0 6.594 -5.364 11.958 -11.958 11.958 H 15.958 C 9.365 61.249 4 55.885 4 49.291 z M 21.16 69.646 c 0 1.79 -1.329 3.247 -2.962 3.247 h -5.675 c -1.633 0 -2.961 -1.457 -2.961 -3.247 v -5.745 c 1.96 0.862 4.121 1.348 6.396 1.348 h 5.202 V 69.646 z M 80.438 69.646 c 0 1.79 -1.329 3.247 -2.962 3.247 h -5.675 c -1.633 0 -2.962 -1.457 -2.962 -3.247 v -4.396 h 5.202 c 2.275 0 4.436 -0.486 6.396 -1.348 V 69.646 z" style="stroke: none; stroke-width: 1; stroke-dasharray: none; stroke-linecap: butt; stroke-linejoin: miter; stroke-miterlimit: 10; fill: rgb(0,0,0); fill-rule: nonzero; opacity: 1;" transform=" matrix(1 0 0 1 0 0) " stroke-linecap="round" />
	<path d="M 21.651 55.764 h -7.606 c -3.707 0 -6.723 -3.016 -6.723 -6.723 s 3.016 -6.723 6.723 -6.723 h 7.606 c 3.707 0 6.723 3.016 6.723 6.723 S 25.358 55.764 21.651 55.764 z M 14.045 46.318 c -1.501 0 -2.723 1.222 -2.723 2.723 s 1.221 2.723 2.723 2.723 h 7.606 c 1.501 0 2.723 -1.222 2.723 -2.723 s -1.222 -2.723 -2.723 -2.723 H 14.045 z" style="stroke: none; stroke-width: 1; stroke-dasharray: none; stroke-linecap: butt; stroke-linejoin: miter; stroke-miterlimit: 10; fill: rgb(0,0,0); fill-rule: nonzero; opacity: 1;" transform=" matrix(1 0 0 1 0 0) " stroke-linecap="round" />
	<path d="M 75.955 55.764 h -7.606 c -3.707 0 -6.723 -3.016 -6.723 -6.723 s 3.016 -6.723 6.723 -6.723 h 7.606 c 3.707 0 6.723 3.016 6.723 6.723 S 79.662 55.764 75.955 55.764 z M 68.349 46.318 c -1.501 0 -2.723 1.222 -2.723 2.723 s 1.222 2.723 2.723 2.723 h 7.606 c 1.501 0 2.723 -1.222 2.723 -2.723 s -1.222 -2.723 -2.723 -2.723 H 68.349 z" style="stroke: none; stroke-width: 1; stroke-dasharray: none; stroke-linecap: butt; stroke-linejoin: miter; stroke-miterlimit: 10; fill: rgb(0,0,0); fill-rule: nonzero; opacity: 1;" transform=" matrix(1 0 0 1 0 0) " stroke-linecap="round" />
	<path d="M 53.499 48.359 H 36.501 c -1.104 0 -2 -0.896 -2 -2 s 0.896 -2 2 -2 h 16.998 c 1.104 0 2 0.896 2 2 S 54.604 48.359 53.499 48.359 z" style="stroke: none; stroke-width: 1; stroke-dasharray: none; stroke-linecap: butt; stroke-linejoin: miter; stroke-miterlimit: 10; fill: rgb(0,0,0); fill-rule: nonzero; opacity: 1;" transform=" matrix(1 0 0 1 0 0) " stroke-linecap="round" />
	<path d="M 53.499 54.223 H 36.501 c -1.104 0 -2 -0.896 -2 -2 s 0.896 -2 2 -2 h 16.998 c 1.104 0 2 0.896 2 2 S 54.604 54.223 53.499 54.223 z" style="stroke: none; stroke-width: 1; stroke-dasharray: none; stroke-linecap: butt; stroke-linejoin: miter; stroke-miterlimit: 10; fill: rgb(0,0,0); fill-rule: nonzero; opacity: 1;" transform=" matrix(1 0 0 1 0 0) " stroke-linecap="round" />
</g>
</svg>