<svg xmlns="http://www.w3.org/2000/svg" xmlns:xlink="http://www.w3.org/1999/xlink" version="1.1" width="256" height="256" viewBox="0 0 256 256" xml:space="preserve">

<defs>
</defs>
<g style="stroke: none; stroke-width: 0; stroke-dasharray: none; stroke-linecap: butt; stroke-linejoin: miter; stroke-miterlimit: 10; fill: none; fill-rule: nonzero; opacity: 1;" transform="translate(1.4065934065934016 1.4065934065934016) scale(2.81 2.81)" >
	<path d="M 45.025 72.734 c -6.05 0 -11.689 2.313 -15.472 6.347 c -0.232 0.247 -0.323 0.597 -0.241 0.926 c 0.083 0.33 0.326 0.595 0.648 0.704 l 10.419 3.546 c 0.105 0.036 0.214 0.054 0.322 0.054 c 0.2 0 0.397 -0.06 0.566 -0.176 c 2.163 -1.483 5.356 -1.481 7.518 0 c 0.259 0.18 0.587 0.224 0.888 0.122 l 10.423 -3.546 c 0.321 -0.109 0.565 -0.374 0.647 -0.704 c 0.083 -0.329 -0.008 -0.679 -0.24 -0.927 C 56.721 75.048 51.079 72.734 45.025 72.734 z M 49.485 82.209 c -1.322 -0.792 -2.854 -1.208 -4.46 -1.208 c -1.605 0 -3.135 0.416 -4.457 1.208 l -8.415 -2.864 c 3.354 -2.946 7.957 -4.61 12.872 -4.61 c 4.919 0 9.523 1.664 12.878 4.61 L 49.485 82.209 z" style="stroke: none; stroke-width: 1; stroke-dasharray: none; stroke-linecap: butt; stroke-linejoin: miter; stroke-miterlimit: 10; fill: rgb(0,0,0); fill-rule: nonzero; opacity: 1;" transform=" matrix(1 0 0 1 0 0) " stroke-linecap="round" />
	<path d="M 44.916 40.895 c 2.486 0 4.67 -1.313 5.31 -3.194 c 0.179 -0.523 -0.102 -1.091 -0.624 -1.269 c -0.521 -0.178 -1.091 0.102 -1.269 0.625 c -0.363 1.065 -1.8 1.839 -3.417 1.839 s -3.054 -0.773 -3.416 -1.838 c -0.178 -0.523 -0.747 -0.803 -1.269 -0.625 c -0.523 0.178 -0.803 0.746 -0.625 1.269 C 40.246 39.581 42.429 40.895 44.916 40.895 z" style="stroke: none; stroke-width: 1; stroke-dasharray: none; stroke-linecap: butt; stroke-linejoin: miter; stroke-miterlimit: 10; fill: rgb(0,0,0); fill-rule: nonzero; opacity: 1;" transform=" matrix(1 0 0 1 0 0) " stroke-linecap="round" />
	<path d="M 80.736 64.188 l -3.962 -6.165 c -1.93 -3.001 -4.431 -5.499 -7.435 -7.424 c -3.618 -2.319 -7.989 -3.568 -12.662 -3.646 l -2.863 -2.584 c -0.078 -0.287 -0.142 -0.595 -0.191 -0.924 c 2.847 -2.785 4.687 -6.549 5.032 -10.667 l 0.457 -7.105 c 1.232 -1.394 1.977 -3.094 1.977 -5.133 c 0 -0.113 -0.03 -0.217 -0.064 -0.318 l 0.061 -4.836 c 1.993 -1.603 3.049 -3.468 3.049 -5.439 C 64.136 4.37 55.73 0 45 0 S 25.864 4.37 25.864 9.949 c 0 2.064 1.163 4.011 3.345 5.663 v 4.93 c 0 1.773 0.585 3.371 1.682 4.76 l 0.454 7.498 c 0.344 4.115 2.192 7.882 5.051 10.668 c -0.049 0.313 -0.111 0.606 -0.186 0.88 l -2.889 2.607 c -4.672 0.078 -9.042 1.327 -12.661 3.646 c -3.005 1.926 -5.507 4.424 -7.435 7.424 l -3.962 6.165 c -4.279 6.659 -3.552 11.525 2.592 17.34 c 0.006 0.006 0.008 0.015 0.014 0.021 c 0.006 0.006 0.015 0.008 0.021 0.014 c 0.001 0.001 0.002 0.002 0.003 0.003 c 1.422 1.342 2.979 2.554 4.629 3.603 c 0.006 0.004 0.014 0.005 0.02 0.009 c 0.146 0.091 0.293 0.18 0.441 0.266 l 0.138 0.082 c 0.024 0.018 0.049 0.034 0.075 0.049 l 0.104 0.058 c 0.513 0.305 1.034 0.596 1.646 0.914 l 0.14 0.073 c 0.585 0.298 1.178 0.58 1.788 0.843 l 0.27 0.108 c 0.399 0.167 0.8 0.332 1.206 0.483 c 0.046 0.017 0.093 0.03 0.14 0.041 C 25.933 89.359 29.509 90 33.123 90 h 23.804 c 3.676 0 7.303 -0.656 10.782 -1.949 c 0.543 -0.202 1.08 -0.421 1.616 -0.654 l 0.506 -0.234 c 0.447 -0.204 0.891 -0.42 1.326 -0.645 l 0.448 -0.236 c 0.507 -0.272 1.005 -0.56 1.521 -0.874 c 0.017 -0.009 0.107 -0.062 0.124 -0.072 c 0.017 -0.01 0.032 -0.021 0.049 -0.032 l 0.057 -0.034 c 0.028 -0.016 0.055 -0.034 0.083 -0.05 c 0.037 -0.017 0.075 -0.028 0.11 -0.05 c 1.648 -1.049 3.206 -2.261 4.629 -3.603 c 0.002 -0.002 0.003 -0.004 0.005 -0.006 c 0.005 -0.004 0.012 -0.006 0.017 -0.011 c 0.015 -0.016 0.02 -0.036 0.034 -0.052 c 0.052 -0.059 0.099 -0.122 0.136 -0.192 C 84.297 75.589 84.961 70.762 80.736 64.188 z M 65.86 81.718 l -0.785 -1.958 c -0.123 -0.308 -0.188 -0.628 -0.198 -0.947 c -0.031 -0.955 0.426 -1.895 1.257 -2.445 l 1.199 -0.795 c 2.373 0.2 3.991 0.895 4.793 2.08 c 0.841 1.245 0.883 3.157 0.145 5.675 l -3.703 0.154 c -0.149 0.005 -0.295 -0.001 -0.439 -0.018 C 67.126 83.343 66.245 82.676 65.86 81.718 z M 76.619 80.215 c -0.661 0.619 -1.306 1.18 -1.952 1.691 c 0.368 -2.225 0.092 -4.008 -0.846 -5.397 c -0.942 -1.394 -2.54 -2.302 -4.743 -2.723 c 0.699 -0.834 1.165 -1.596 1.341 -2.351 c 2.841 0.661 4.768 1.77 5.736 3.302 C 77.039 76.137 77.19 77.932 76.619 80.215 z M 75.092 59.105 l 3.962 6.165 c 3.146 4.896 3.2 8.424 -0.109 12.485 c 0 -1.55 -0.362 -2.919 -1.099 -4.087 c -1.37 -2.168 -3.921 -3.586 -7.76 -4.341 c -0.48 -0.897 -1.383 -1.743 -2.567 -2.838 c -0.547 -0.506 -1.167 -1.079 -1.846 -1.749 c -0.202 -0.2 -0.468 -0.291 -0.732 -0.283 c -0.264 -0.005 -0.53 0.09 -0.732 0.293 c -0.388 0.393 -0.384 1.025 0.01 1.414 c 0.695 0.687 1.331 1.274 1.893 1.793 c 1.334 1.232 2.297 2.123 2.31 2.785 c 0.01 0.507 -0.459 1.252 -1.48 2.353 c -4.824 -4.616 -11.211 -7.554 -18.061 -8.362 l -0.435 -5.94 l 1.003 -2.405 l 0.561 0.501 c 0.185 0.164 0.422 0.254 0.666 0.254 c 0.04 0 0.081 -0.002 0.121 -0.008 c 0.285 -0.034 0.543 -0.19 0.705 -0.429 l 5.292 -7.751 c 4.244 0.095 8.201 1.232 11.468 3.326 C 71.021 54.052 73.319 56.348 75.092 59.105 z M 46.243 64.529 c -0.828 -0.036 -1.607 -0.037 -2.441 0 c -0.222 0.008 -0.443 0.017 -0.664 0.03 l 0.361 -4.929 h 3.002 l 0.361 4.925 C 46.656 64.543 46.449 64.537 46.243 64.529 z M 40.268 53.962 C 40.267 53.962 40.267 53.962 40.268 53.962 l -0.758 0.678 l -4.414 -6.463 c 0.013 -0.052 0.028 -0.104 0.032 -0.159 l 1.93 -1.741 l 6.373 4.86 l -2.173 1.941 L 40.268 53.962 z M 42.407 47.238 c 0.832 0.301 1.705 0.454 2.593 0.454 c 0.889 0 1.761 -0.153 2.592 -0.454 c 0.553 -0.2 1.086 -0.437 1.609 -0.69 c 0.064 -0.031 0.133 -0.052 0.197 -0.084 L 45 49.817 l -1.805 -1.376 l -2.593 -1.977 c 0.062 0.031 0.128 0.052 0.19 0.082 C 41.317 46.8 41.852 47.038 42.407 47.238 z M 54.904 48.176 l -4.413 6.464 l -3.922 -3.504 l 6.373 -4.86 l 1.93 1.742 C 54.877 48.073 54.891 48.124 54.904 48.176 z M 45 52.416 l 1.439 1.286 l 1.43 1.277 l -1.104 2.65 h -3.529 l -1.105 -2.65 L 45 52.416 z M 45.749 28.492 c -0.116 0.003 -0.232 0.007 -0.349 0.008 c -0.281 0.002 -0.565 -0.002 -0.85 -0.008 c -0.063 -0.001 -0.125 -0.003 -0.188 -0.004 c -0.629 -0.019 -1.249 -0.058 -1.856 -0.12 c 0 0 0 0 0 0 c -0.603 -0.061 -1.191 -0.145 -1.765 -0.246 c -0.028 -0.005 -0.056 -0.009 -0.083 -0.014 c -0.577 -0.104 -1.139 -0.226 -1.68 -0.368 c -0.01 -0.003 -0.019 -0.005 -0.029 -0.008 c -0.545 -0.144 -1.071 -0.306 -1.573 -0.486 c -0.002 -0.001 -0.004 -0.001 -0.006 -0.002 c -0.508 -0.183 -0.992 -0.383 -1.45 -0.6 c -0.001 0 -0.002 -0.001 -0.003 -0.001 c -0.418 -0.199 -0.807 -0.416 -1.177 -0.642 c -0.058 -0.036 -0.118 -0.07 -0.175 -0.107 c -0.363 -0.231 -0.703 -0.474 -1.011 -0.73 c -0.044 -0.037 -0.081 -0.078 -0.125 -0.116 c -0.245 -0.212 -0.467 -0.433 -0.671 -0.66 c -0.747 -0.829 -1.265 -1.775 -1.46 -2.846 L 59 21.545 c -0.781 4.272 -6.541 6.634 -12.569 6.928 C 46.205 28.483 45.977 28.487 45.749 28.492 z M 59.034 19.542 H 31.209 V 16.11 h 27.868 L 59.034 19.542 z M 27.864 9.949 C 27.864 5.64 35.711 2 45 2 c 9.288 0 17.136 3.64 17.136 7.949 c 0 1.793 -1.391 3.227 -2.657 4.161 H 30.521 C 29.253 13.175 27.864 11.741 27.864 9.949 z M 33.34 32.655 l -0.325 -5.372 c 0.433 0.303 0.889 0.595 1.393 0.864 c 2.251 1.2 5.105 1.967 8.21 2.24 c 0.046 0.004 0.093 0.007 0.139 0.011 c 0.48 0.04 0.965 0.068 1.456 0.083 c 0.047 0.002 0.092 0.007 0.14 0.008 c 0.052 0.001 0.102 -0.002 0.154 0 c 0.215 0.005 0.427 0.017 0.643 0.017 c 0.273 0 0.547 -0.013 0.82 -0.021 c 0.115 -0.003 0.231 -0.004 0.346 -0.009 c 0.487 -0.02 0.974 -0.052 1.46 -0.098 c 0.083 -0.008 0.167 -0.011 0.249 -0.019 c 0.519 -0.053 1.035 -0.123 1.547 -0.205 c 0.211 -0.034 0.414 -0.077 0.621 -0.115 c 0.317 -0.059 0.633 -0.12 0.945 -0.191 c 0.197 -0.045 0.389 -0.094 0.582 -0.144 c 0.332 -0.084 0.66 -0.175 0.983 -0.274 c 0.146 -0.045 0.29 -0.089 0.433 -0.137 c 0.386 -0.127 0.762 -0.264 1.131 -0.412 c 0.071 -0.029 0.144 -0.055 0.215 -0.085 c 0.901 -0.373 1.747 -0.804 2.509 -1.303 l -0.33 5.138 c -0.32 3.82 -2.115 7.296 -4.869 9.783 c -0.334 0.301 -0.676 0.589 -1.031 0.856 c -0.006 0.005 -0.012 0.01 -0.019 0.015 c -0.364 0.273 -0.74 0.524 -1.124 0.761 c -0.085 0.052 -0.173 0.101 -0.26 0.152 c -0.296 0.174 -0.597 0.336 -0.904 0.489 c -0.112 0.056 -0.223 0.112 -0.336 0.165 c -0.395 0.184 -0.796 0.356 -1.208 0.505 c 0 0 0 0 -0.001 0 c -1.225 0.443 -2.595 0.444 -3.824 0 c -0.412 -0.149 -0.812 -0.321 -1.207 -0.505 c -0.111 -0.052 -0.219 -0.107 -0.328 -0.161 c -0.307 -0.153 -0.609 -0.315 -0.905 -0.489 c -0.085 -0.05 -0.172 -0.098 -0.257 -0.15 c -0.769 -0.473 -1.497 -1.018 -2.18 -1.633 C 35.455 39.935 33.658 36.463 33.34 32.655 z M 10.946 65.271 l 3.962 -6.165 c 1.771 -2.758 4.07 -5.053 6.832 -6.822 c 3.267 -2.094 7.224 -3.231 11.468 -3.326 l 5.293 7.751 c 0.162 0.238 0.419 0.395 0.705 0.429 c 0.041 0.006 0.081 0.008 0.121 0.008 c 0.245 0 0.482 -0.09 0.666 -0.254 l 0.56 -0.5 l 1.003 2.404 l -0.436 5.947 c -6.842 0.818 -13.222 3.763 -18.036 8.382 c -0.031 -0.033 -0.06 -0.065 -0.089 -0.097 c -0.156 -0.17 -0.295 -0.328 -0.42 -0.475 c -0.029 -0.035 -0.061 -0.071 -0.089 -0.105 c -0.137 -0.166 -0.257 -0.32 -0.358 -0.459 c -0.005 -0.007 -0.012 -0.015 -0.016 -0.022 c -0.104 -0.145 -0.186 -0.274 -0.256 -0.395 c -0.029 -0.05 -0.049 -0.095 -0.073 -0.143 c -0.032 -0.063 -0.066 -0.128 -0.089 -0.185 c -0.022 -0.053 -0.035 -0.101 -0.051 -0.151 c -0.014 -0.045 -0.03 -0.092 -0.038 -0.133 c -0.009 -0.044 -0.011 -0.085 -0.014 -0.127 c -0.003 -0.038 -0.007 -0.077 -0.006 -0.112 c 0.035 -0.66 0.987 -1.542 2.305 -2.76 c 0.562 -0.52 1.197 -1.107 1.893 -1.794 c 0.393 -0.389 0.397 -1.021 0.009 -1.414 c -0.388 -0.394 -1.021 -0.397 -1.414 -0.01 c -0.678 0.67 -1.298 1.243 -1.845 1.749 c -1.187 1.097 -2.091 1.944 -2.57 2.843 c -3.825 0.756 -6.368 2.172 -7.734 4.335 c -0.751 1.189 -1.115 2.587 -1.102 4.173 C 7.746 73.744 7.778 70.2 10.946 65.271 z M 25.065 79.76 l -0.785 1.958 c -0.434 1.083 -1.512 1.786 -2.667 1.763 c -0.014 0 -0.028 0.002 -0.042 0.002 l -0.745 -0.026 l -3.018 -0.106 c -0.019 -0.064 -0.041 -0.131 -0.059 -0.195 c -0.042 -0.147 -0.078 -0.29 -0.114 -0.433 c -0.044 -0.176 -0.086 -0.349 -0.122 -0.519 c -0.029 -0.136 -0.055 -0.271 -0.079 -0.403 c -0.029 -0.165 -0.054 -0.326 -0.075 -0.485 c -0.017 -0.126 -0.032 -0.251 -0.043 -0.372 c -0.014 -0.155 -0.022 -0.304 -0.028 -0.452 c -0.004 -0.114 -0.009 -0.229 -0.009 -0.339 c 0.001 -0.146 0.01 -0.285 0.02 -0.423 c 0.007 -0.101 0.012 -0.205 0.025 -0.302 c 0.017 -0.139 0.045 -0.271 0.072 -0.402 c 0.018 -0.086 0.032 -0.175 0.054 -0.257 c 0.038 -0.14 0.087 -0.27 0.137 -0.4 c 0.024 -0.063 0.043 -0.131 0.07 -0.192 c 0.083 -0.186 0.178 -0.362 0.289 -0.525 c 0.103 -0.153 0.221 -0.297 0.351 -0.434 c 0.045 -0.048 0.101 -0.09 0.149 -0.135 c 0.091 -0.085 0.18 -0.171 0.281 -0.25 c 0.065 -0.05 0.141 -0.094 0.211 -0.142 c 0.098 -0.066 0.193 -0.134 0.299 -0.195 c 0.082 -0.047 0.173 -0.087 0.26 -0.13 c 0.108 -0.054 0.213 -0.109 0.328 -0.157 c 0.098 -0.041 0.204 -0.076 0.307 -0.114 c 0.118 -0.043 0.234 -0.087 0.359 -0.125 c 0.113 -0.034 0.235 -0.064 0.354 -0.094 c 0.128 -0.033 0.254 -0.066 0.389 -0.095 c 0.129 -0.027 0.266 -0.05 0.402 -0.073 c 0.137 -0.023 0.273 -0.047 0.417 -0.066 c 0.145 -0.02 0.297 -0.035 0.449 -0.05 c 0.098 -0.01 0.197 -0.019 0.297 -0.027 l 1.208 0.8 C 25.115 77.102 25.559 78.527 25.065 79.76 z M 13.605 80.416 c -0.045 -0.041 -0.091 -0.08 -0.135 -0.122 c -0.594 -2.322 -0.448 -4.142 0.447 -5.559 c 0.968 -1.532 2.895 -2.641 5.736 -3.302 c 0.017 0.073 0.049 0.146 0.071 0.219 c 0.022 0.072 0.044 0.144 0.07 0.216 c 0.039 0.105 0.086 0.212 0.136 0.318 c 0.04 0.086 0.083 0.172 0.13 0.259 c 0.051 0.094 0.106 0.189 0.165 0.284 c 0.063 0.102 0.131 0.206 0.203 0.31 c 0.058 0.084 0.118 0.169 0.182 0.254 c 0.087 0.117 0.18 0.236 0.277 0.355 c 0.038 0.047 0.07 0.093 0.11 0.14 c -0.05 0.01 -0.095 0.023 -0.144 0.034 c -0.092 0.019 -0.179 0.042 -0.269 0.063 c -0.223 0.052 -0.439 0.11 -0.649 0.173 c -0.094 0.028 -0.187 0.057 -0.278 0.087 c -0.217 0.073 -0.424 0.152 -0.625 0.237 c -0.061 0.026 -0.125 0.048 -0.185 0.075 c -0.252 0.114 -0.49 0.238 -0.716 0.372 c -0.057 0.034 -0.108 0.072 -0.163 0.107 c -0.167 0.106 -0.327 0.217 -0.479 0.334 c -0.068 0.053 -0.133 0.107 -0.198 0.162 c -0.135 0.115 -0.263 0.235 -0.385 0.36 c -0.054 0.055 -0.11 0.109 -0.161 0.166 c -0.164 0.183 -0.319 0.373 -0.456 0.576 c -0.143 0.212 -0.266 0.439 -0.379 0.672 c -0.033 0.067 -0.062 0.136 -0.092 0.205 c -0.08 0.185 -0.152 0.375 -0.214 0.572 c -0.021 0.065 -0.044 0.129 -0.062 0.195 c -0.072 0.258 -0.131 0.525 -0.173 0.803 c -0.008 0.053 -0.011 0.109 -0.018 0.163 c -0.03 0.233 -0.049 0.473 -0.059 0.72 c -0.003 0.089 -0.005 0.18 -0.006 0.271 c -0.002 0.253 0.007 0.513 0.026 0.779 c 0.004 0.059 0.005 0.116 0.01 0.175 c 0.025 0.282 0.06 0.571 0.108 0.868 c -0.01 -0.008 -0.02 -0.015 -0.03 -0.022 C 14.78 81.454 14.183 80.945 13.605 80.416 z M 67.01 86.174 C 63.756 87.386 60.363 88 56.927 88 H 33.123 c -3.423 0 -6.812 -0.615 -10.072 -1.83 c -0.043 -0.016 -0.087 -0.028 -0.132 -0.038 c -0.337 -0.129 -0.67 -0.267 -1.002 -0.405 l -0.257 -0.103 c -0.113 -0.049 -0.227 -0.099 -0.339 -0.149 l 0.181 0.006 c 0.056 0.002 0.113 0.003 0.169 0.003 c 0.143 0 0.283 -0.02 0.425 -0.032 c 0.06 -0.006 0.121 -0.006 0.18 -0.014 c 1.449 -0.185 2.742 -1.021 3.502 -2.268 c 0.008 -0.014 0.019 -0.026 0.027 -0.039 c 0.126 -0.212 0.238 -0.435 0.332 -0.668 l 0.785 -1.958 c 0.845 -2.108 0.084 -4.549 -1.809 -5.804 l -0.472 -0.313 c 4.64 -4.371 10.809 -7.102 17.394 -7.741 c 0.007 0 0.013 0.004 0.021 0.004 c 0.031 0 0.062 -0.001 0.092 -0.004 c 0.6 -0.056 1.143 -0.095 1.665 -0.119 c 0.403 -0.016 0.807 -0.028 1.212 -0.028 c 0.408 0 0.815 0.012 1.221 0.028 c 0.503 0.024 1.029 0.061 1.609 0.113 c 0.018 0.002 0.035 -0.007 0.054 -0.007 c 6.644 0.621 12.868 3.374 17.538 7.79 L 65.028 74.7 c -1.893 1.255 -2.654 3.695 -1.809 5.804 l 0.784 1.958 c 0.093 0.231 0.203 0.452 0.328 0.662 c 0.049 0.083 0.11 0.156 0.164 0.235 c 0.082 0.121 0.16 0.245 0.252 0.357 c 0.08 0.097 0.171 0.182 0.258 0.272 c 0.079 0.082 0.152 0.169 0.236 0.245 c 0.105 0.095 0.221 0.177 0.334 0.263 c 0.076 0.058 0.148 0.121 0.227 0.174 c 0.125 0.083 0.258 0.152 0.39 0.224 c 0.077 0.042 0.151 0.089 0.23 0.126 c 0.135 0.064 0.276 0.112 0.416 0.163 c 0.085 0.031 0.168 0.067 0.255 0.094 c 0.134 0.04 0.273 0.066 0.411 0.095 c 0.101 0.021 0.201 0.047 0.304 0.061 c 0.125 0.017 0.252 0.021 0.379 0.029 c 0.096 0.006 0.191 0.022 0.288 0.022 c 0.056 0 0.112 -0.001 0.17 -0.003 l 0.063 -0.003 l -0.187 0.087 C 68.023 85.782 67.52 85.987 67.01 86.174 z" style="stroke: none; stroke-width: 1; stroke-dasharray: none; stroke-linecap: butt; stroke-linejoin: miter; stroke-miterlimit: 10; fill: rgb(0,0,0); fill-rule: nonzero; opacity: 1;" transform=" matrix(1 0 0 1 0 0) " stroke-linecap="round" />
</g>
</svg>