<svg xmlns="http://www.w3.org/2000/svg" xmlns:xlink="http://www.w3.org/1999/xlink" version="1.1" width="256" height="256" viewBox="0 0 256 256" xml:space="preserve">

<defs>
</defs>
<g style="stroke: none; stroke-width: 0; stroke-dasharray: none; stroke-linecap: butt; stroke-linejoin: miter; stroke-miterlimit: 10; fill: none; fill-rule: nonzero; opacity: 1;" transform="translate(1.4065934065934016 1.4065934065934016) scale(2.81 2.81)" >
	<path d="M 45 0 C 20.187 0 0 20.187 0 45 c 0 24.813 20.187 45 45 45 c 24.813 0 45 -20.187 45 -45 C 90 20.187 69.813 0 45 0 z M 45 88 C 21.29 88 2 68.71 2 45 C 2 21.29 21.29 2 45 2 c 23.71 0 43 19.29 43 43 C 88 68.71 68.71 88 45 88 z" style="stroke: none; stroke-width: 1; stroke-dasharray: none; stroke-linecap: butt; stroke-linejoin: miter; stroke-miterlimit: 10; fill: rgb(0,0,0); fill-rule: nonzero; opacity: 1;" transform=" matrix(1 0 0 1 0 0) " stroke-linecap="round" />
	<path d="M 11.219 41.678 h 1.938 c 0.665 0 1.206 0.541 1.206 1.206 c 0 0.552 0.448 1 1 1 s 1 -0.448 1 -1 c 0 -1.768 -1.438 -3.206 -3.206 -3.206 h -1.938 c -1.768 0 -3.206 1.438 -3.206 3.206 v 5.819 c 0 1.768 1.438 3.206 3.206 3.206 h 1.938 c 1.768 0 3.206 -1.438 3.206 -3.206 c 0 -0.553 -0.448 -1 -1 -1 s -1 0.447 -1 1 c 0 0.665 -0.541 1.206 -1.206 1.206 h -1.938 c -0.665 0 -1.206 -0.541 -1.206 -1.206 v -5.819 C 10.013 42.219 10.554 41.678 11.219 41.678 z" style="stroke: none; stroke-width: 1; stroke-dasharray: none; stroke-linecap: butt; stroke-linejoin: miter; stroke-miterlimit: 10; fill: rgb(0,0,0); fill-rule: nonzero; opacity: 1;" transform=" matrix(1 0 0 1 0 0) " stroke-linecap="round" />
	<path d="M 24.924 41.678 c 0.552 0 1 -0.448 1 -1 s -0.448 -1 -1 -1 H 19.75 c -0.552 0 -1 0.448 -1 1 v 10.231 c 0 0.553 0.448 1 1 1 h 5.175 c 0.552 0 1 -0.447 1 -1 s -0.448 -1 -1 -1 H 20.75 v -3.116 h 2.606 c 0.552 0 1 -0.447 1 -1 s -0.448 -1 -1 -1 H 20.75 v -3.115 H 24.924 z" style="stroke: none; stroke-width: 1; stroke-dasharray: none; stroke-linecap: butt; stroke-linejoin: miter; stroke-miterlimit: 10; fill: rgb(0,0,0); fill-rule: nonzero; opacity: 1;" transform=" matrix(1 0 0 1 0 0) " stroke-linecap="round" />
	<path d="M 29.934 50.909 v -4.115 h 2.522 c 0.001 0 0.002 0 0.003 0 c 0.526 0.002 0.953 0.43 0.953 0.956 v 3.159 c 0 0.553 0.448 1 1 1 s 1 -0.447 1 -1 V 47.75 c 0 -0.753 -0.292 -1.434 -0.757 -1.956 c 0.465 -0.523 0.757 -1.203 0.757 -1.956 v -1.203 c 0 -1.63 -1.326 -2.956 -2.956 -2.956 h -3.522 c -0.552 0 -1 0.448 -1 1 v 5.115 v 5.116 c 0 0.553 0.448 1 1 1 S 29.934 51.462 29.934 50.909 z M 29.934 41.678 h 2.522 c 0.527 0 0.956 0.429 0.956 0.956 v 1.203 c 0 0.527 -0.429 0.956 -0.956 0.956 h -2.522 V 41.678 z" style="stroke: none; stroke-width: 1; stroke-dasharray: none; stroke-linecap: butt; stroke-linejoin: miter; stroke-miterlimit: 10; fill: rgb(0,0,0); fill-rule: nonzero; opacity: 1;" transform=" matrix(1 0 0 1 0 0) " stroke-linecap="round" />
	<path d="M 41.381 51.909 c 0.552 0 1 -0.447 1 -1 v -9.231 h 2.227 c 0.552 0 1 -0.448 1 -1 s -0.448 -1 -1 -1 h -6.454 c -0.552 0 -1 0.448 -1 1 s 0.448 1 1 1 h 2.227 v 9.231 C 40.381 51.462 40.829 51.909 41.381 51.909 z" style="stroke: none; stroke-width: 1; stroke-dasharray: none; stroke-linecap: butt; stroke-linejoin: miter; stroke-miterlimit: 10; fill: rgb(0,0,0); fill-rule: nonzero; opacity: 1;" transform=" matrix(1 0 0 1 0 0) " stroke-linecap="round" />
	<path d="M 46.758 40.678 v 10.231 c 0 0.553 0.447 1 1 1 s 1 -0.447 1 -1 V 40.678 c 0 -0.552 -0.447 -1 -1 -1 S 46.758 40.126 46.758 40.678 z" style="stroke: none; stroke-width: 1; stroke-dasharray: none; stroke-linecap: butt; stroke-linejoin: miter; stroke-miterlimit: 10; fill: rgb(0,0,0); fill-rule: nonzero; opacity: 1;" transform=" matrix(1 0 0 1 0 0) " stroke-linecap="round" />
	<path d="M 57.176 41.678 c 0.553 0 1 -0.448 1 -1 s -0.447 -1 -1 -1 h -4.535 c -0.553 0 -1 0.448 -1 1 v 10.231 c 0 0.553 0.447 1 1 1 s 1 -0.447 1 -1 v -4.116 h 1.967 c 0.553 0 1 -0.447 1 -1 s -0.447 -1 -1 -1 h -1.967 v -3.115 H 57.176 z" style="stroke: none; stroke-width: 1; stroke-dasharray: none; stroke-linecap: butt; stroke-linejoin: miter; stroke-miterlimit: 10; fill: rgb(0,0,0); fill-rule: nonzero; opacity: 1;" transform=" matrix(1 0 0 1 0 0) " stroke-linecap="round" />
	<path d="M 61.186 39.678 c -0.553 0 -1 0.448 -1 1 v 10.231 c 0 0.553 0.447 1 1 1 s 1 -0.447 1 -1 V 40.678 C 62.186 40.126 61.738 39.678 61.186 39.678 z" style="stroke: none; stroke-width: 1; stroke-dasharray: none; stroke-linecap: butt; stroke-linejoin: miter; stroke-miterlimit: 10; fill: rgb(0,0,0); fill-rule: nonzero; opacity: 1;" transform=" matrix(1 0 0 1 0 0) " stroke-linecap="round" />
	<path d="M 70.964 41.678 c 0.553 0 1 -0.448 1 -1 s -0.447 -1 -1 -1 h -5.175 c -0.553 0 -1 0.448 -1 1 v 10.231 c 0 0.553 0.447 1 1 1 h 5.175 c 0.553 0 1 -0.447 1 -1 s -0.447 -1 -1 -1 h -4.175 v -3.116 h 2.606 c 0.553 0 1 -0.447 1 -1 s -0.447 -1 -1 -1 h -2.606 v -3.115 H 70.964 z" style="stroke: none; stroke-width: 1; stroke-dasharray: none; stroke-linecap: butt; stroke-linejoin: miter; stroke-miterlimit: 10; fill: rgb(0,0,0); fill-rule: nonzero; opacity: 1;" transform=" matrix(1 0 0 1 0 0) " stroke-linecap="round" />
	<path d="M 78.781 39.678 h -4.145 c -0.553 0 -1 0.448 -1 1 v 10.231 c 0 0.553 0.447 1 1 1 h 4.145 c 1.768 0 3.206 -1.438 3.206 -3.206 v -5.819 C 81.987 41.116 80.549 39.678 78.781 39.678 z M 79.987 48.703 c 0 0.665 -0.541 1.206 -1.206 1.206 h -3.145 v -8.231 h 3.145 c 0.665 0 1.206 0.541 1.206 1.206 V 48.703 z" style="stroke: none; stroke-width: 1; stroke-dasharray: none; stroke-linecap: butt; stroke-linejoin: miter; stroke-miterlimit: 10; fill: rgb(0,0,0); fill-rule: nonzero; opacity: 1;" transform=" matrix(1 0 0 1 0 0) " stroke-linecap="round" />
	<path d="M 60.048 56.808 H 29.952 c -0.552 0 -1 0.447 -1 1 v 21.73 c 0 0.358 0.191 0.689 0.502 0.867 c 0.31 0.18 0.692 0.177 1.002 -0.004 L 45 71.902 l 14.543 8.499 c 0.156 0.091 0.33 0.137 0.505 0.137 c 0.172 0 0.344 -0.044 0.498 -0.133 c 0.311 -0.178 0.502 -0.509 0.502 -0.867 v -21.73 C 61.048 57.255 60.601 56.808 60.048 56.808 z M 59.048 77.796 l -13.543 -7.915 c -0.156 -0.091 -0.33 -0.137 -0.504 -0.137 s -0.349 0.046 -0.504 0.137 l -13.543 7.915 V 58.808 h 28.096 V 77.796 z" style="stroke: none; stroke-width: 1; stroke-dasharray: none; stroke-linecap: butt; stroke-linejoin: miter; stroke-miterlimit: 10; fill: rgb(0,0,0); fill-rule: nonzero; opacity: 1;" transform=" matrix(1 0 0 1 0 0) " stroke-linecap="round" />
	<path d="M 30.714 32.612 h 6.569 c 1.185 0 2.333 0.346 3.32 1.001 c 1.317 0.874 2.848 1.336 4.427 1.336 h 9.993 c 1.719 0 3.116 -1.398 3.116 -3.116 c 0 -0.537 -0.149 -1.036 -0.389 -1.477 c 0.992 -0.522 1.678 -1.551 1.678 -2.748 c 0 -0.613 -0.184 -1.181 -0.49 -1.663 c 0.813 -0.563 1.349 -1.5 1.349 -2.562 c 0 -1.063 -0.537 -2.001 -1.352 -2.564 c 0.309 -0.483 0.493 -1.054 0.493 -1.668 c 0 -1.718 -1.397 -3.116 -3.116 -3.116 l -6.758 0.003 c 0.368 -4.475 -0.086 -7.099 -1.443 -8.441 c -0.783 -0.775 -1.841 -1.091 -3.144 -0.939 c -0.84 0.099 -1.51 0.786 -1.592 1.635 c -0.42 4.383 -3.072 9.322 -5.01 9.436 h -7.65 c -0.552 0 -1 0.448 -1 1 v 12.883 C 29.714 32.165 30.162 32.612 30.714 32.612 z M 31.714 19.729 l 6.708 -0.001 c 3.616 -0.209 6.446 -6.555 6.928 -11.098 c 0.796 -0.057 1.152 0.19 1.354 0.39 c 0.655 0.648 1.318 2.547 0.757 7.916 c -0.03 0.282 0.062 0.563 0.251 0.773 c 0.19 0.21 0.46 0.331 0.743 0.331 h 0.001 l 7.855 -0.004 c 0.615 0 1.116 0.5 1.116 1.116 c 0 0.615 -0.501 1.116 -1.116 1.116 h -3.645 h -0.858 c -0.553 0 -1 0.448 -1 1 s 0.447 1 1 1 h 0.858 h 3.645 h 0.858 c 0.615 0 1.116 0.5 1.116 1.116 S 57.785 24.5 57.17 24.5 h -0.781 c -0.026 -0.001 -0.051 -0.008 -0.077 -0.008 h -4.503 c -0.553 0 -1 0.448 -1 1 s 0.447 1 1 1 h 0.82 c 0.014 0.001 0.025 0.008 0.039 0.008 h 3.683 c 0.596 0.022 1.078 0.506 1.078 1.108 c 0 0.616 -0.501 1.116 -1.116 1.116 h -1.216 c -0.025 -0.001 -0.048 -0.007 -0.072 -0.007 h -4.502 c -0.553 0 -1 0.448 -1 1 s 0.447 1 1 1 h 1.251 c 0.013 0 0.023 0.007 0.036 0.007 h 3.251 c 0.598 0.02 1.08 0.506 1.08 1.109 c 0 0.616 -0.501 1.116 -1.116 1.116 h -9.993 c -1.185 0 -2.333 -0.347 -3.321 -1.002 c -1.316 -0.874 -2.847 -1.335 -4.426 -1.335 h -5.569 V 19.729 z" style="stroke: none; stroke-width: 1; stroke-dasharray: none; stroke-linecap: butt; stroke-linejoin: miter; stroke-miterlimit: 10; fill: rgb(0,0,0); fill-rule: nonzero; opacity: 1;" transform=" matrix(1 0 0 1 0 0) " stroke-linecap="round" />
</g>
</svg>